<svg height="574" width="720" xmlns="http://www.w3.org/2000/svg">
<rect height="574" fill="#555" width="720"></rect>
<text fill="#7f7" font-family="Courier New" font-size="12" xml:space="preserve">
<tspan x="10" y="26">7 megabytes installed</tspan>
<tspan x="10" y="42"></tspan>
<tspan x="10" y="58">node_modules</tspan>
<tspan x="10" y="74">└─┬ jshint@2.9.4 </tspan>
<tspan x="10" y="90">  ├─┬ cli@1.0.1 </tspan>
<tspan x="10" y="106">  │ └─┬ glob@7.1.1 </tspan>
<tspan x="10" y="122">  │   ├── fs.realpath@1.0.0 </tspan>
<tspan x="10" y="138">  │   ├─┬ inflight@1.0.6 </tspan>
<tspan x="10" y="154">  │   │ └── wrappy@1.0.2 </tspan>
<tspan x="10" y="170">  │   ├── inherits@2.0.3 </tspan>
<tspan x="10" y="186">  │   ├── once@1.4.0 </tspan>
<tspan x="10" y="202">  │   └── path-is-absolute@1.0.1 </tspan>
<tspan x="10" y="218">  ├─┬ console-browserify@1.1.0 </tspan>
<tspan x="10" y="234">  │ └── date-now@0.1.4 </tspan>
<tspan x="10" y="250">  ├── exit@0.1.2 </tspan>
<tspan x="10" y="266">  ├─┬ htmlparser2@3.8.3 </tspan>
<tspan x="10" y="282">  │ ├── domelementtype@1.3.0 </tspan>
<tspan x="10" y="298">  │ ├── domhandler@2.3.0 </tspan>
<tspan x="10" y="314">  │ ├─┬ domutils@1.5.1 </tspan>
<tspan x="10" y="330">  │ │ └─┬ dom-serializer@0.1.0 </tspan>
<tspan x="10" y="346">  │ │   ├── domelementtype@1.1.3 </tspan>
<tspan x="10" y="362">  │ │   └── entities@1.1.1 </tspan>
<tspan x="10" y="378">  │ ├── entities@1.0.0 </tspan>
<tspan x="10" y="394">  │ └─┬ readable-stream@1.1.14 </tspan>
<tspan x="10" y="410">  │   ├── core-util-is@1.0.2 </tspan>
<tspan x="10" y="426">  │   ├── isarray@0.0.1 </tspan>
<tspan x="10" y="442">  │   └── string_decoder@0.10.31 </tspan>
<tspan x="10" y="458">  ├── lodash@3.7.0 </tspan>
<tspan x="10" y="474">  ├─┬ minimatch@3.0.3 </tspan>
<tspan x="10" y="490">  │ └─┬ brace-expansion@1.1.7 </tspan>
<tspan x="10" y="506">  │   ├── balanced-match@0.4.2 </tspan>
<tspan x="10" y="522">  │   └── concat-map@0.0.1 </tspan>
<tspan x="10" y="538">  ├── shelljs@0.3.0 </tspan>
<tspan x="10" y="554">  └── strip-json-comments@1.0.4</tspan>
</text>
</svg>
